<svg xmlns="http://www.w3.org/2000/svg" viewBox="0 0 512 512" role="img" aria-labelledby="title desc">
  <title id="title">Jinjie Mobile icon</title>
  <desc id="desc">A minimal teal J mark for Jinjie Mobile.</desc>
  <rect width="512" height="512" rx="112" fill="#f7fbf8"/>
  <g transform="translate(94 66)">
    <path d="M184 0h74v232c0 90-58 150-148 150-43 0-81-13-110-37l44-60c18 14 39 22 63 22 47 0 77-29 77-78V0Z" fill="#13b8aa"/>
    <path d="M0 345l44-60 80 58-44 60L0 345Z" fill="#31d0bb"/>
    <path d="M184 0h74v78h-74V0Z" fill="#21c4b6"/>
    <path d="M44 285l80 58-44 60L0 345l44-60Z" fill="#17a99b"/>
    <path d="M184 212c0 62-25 95-74 95-20 0-39-6-56-18l-10-4-44 60c29 24 67 37 110 37 90 0 148-60 148-150v-20h-74Z" fill="#0e8f83"/>
  </g>
</svg>
